/* XPM */
static char *_59850aa5c6a430fa7ae437792342980gUTEa5efj96UMlp9[] = {
/* columns rows colors chars-per-pixel */
"126 125 49 1 ",
"  c #3F2216",
". c #442517",
"X c #472817",
"o c #482917",
"O c #452718",
"+ c #482718",
"@ c #472919",
"# c #4D2C1A",
"$ c #512E1C",
"% c #4E301F",
"& c #55311D",
"* c #5B351E",
"= c #5F381F",
"- c #60371F",
"; c #60381F",
": c #553320",
"> c #5C3621",
", c #5F3820",
"< c #5C3822",
"1 c #5F3A22",
"2 c #603720",
"3 c #603820",
"4 c #643B22",
"5 c #623C23",
"6 c #673E22",
"7 c #613C24",
"8 c #633C24",
"9 c #623C25",
"0 c #663F25",
"q c #693E23",
"w c #683F26",
"e c #674026",
"r c #6A4023",
"t c #6B4024",
"y c #6D4327",
"u c #6E4427",
"i c #6B4228",
"p c #6D4328",
"a c #6E4428",
"s c #704426",
"d c #704527",
"f c #744727",
"g c #754827",
"h c #714528",
"j c #724729",
"k c #754728",
"l c #754928",
"z c #794A29",
"x c #794B2A",
/* pixels */
"hgq*+*#.+,,w,&3,0#$&##$3ht66ttyydw&&$&$***$3*;**$#&*du0,6pz+#:05#$wtkt66**+=&&,$,00##6kldtaft,&&***&+$#$&*$3,&+&$*$*yy***$,,43",
"hk6&#&#+$:9>9:,39,$*$#$3dt;6tythl3&&$$&***&3**3&*$$,ha0,6tl&$:,0&$66dwq3&$*=#$#$09a&#6hldthdy3&&*3q*+*.$+*&*,&&:#3#*wy&&>&,,33",
"hlq*$*#&&>,,0,,30&$&*&$3dt466wtpl3$*.*+*&&#,$=***#&*lp3*6yh&$>>0,#00dtr6&*#3#$&#39z$#0dluaady3$&***$$*&$@&&****,&5#,ty**,&3,,3",
"hl6*$,*+&>9&0,3tt,$*$$&6ht*66tytl3*&$&+***$**q&$*+$*fp0*wah*&&3**$w6d656&*+=#$&$6pl$&6hldiudy,*&&3**+*$$+&$**,&>,&$*wt,*3&,&34",
"hlt&#,&&&9,09:tp>&&#&#&6dt*66wwau,$&$4$6&&#**6&&$+$>dyw*6ud&&>:>&&05d060*$$*#,&&,hh+&6dldthdy3&**,*$#&#3**&3**&*,6#,ty*>*&,*33",
"hl6&+*#.>9>9i:9w,*&$*&&6dt;464tuy,$#.q&3&&#*#q&+&@$*yp6,6yh&$>#0*$64dw36&*&6#&$#6il#*tdlhtudt4&**;*#$&&$#*&,&,$>*3#*6y*,***336",
"hlq*&*++&,,>::,t>,&#&O*6dt*34qwht,+&+6#3*&#&*;*#*#$*yy6*tph$+:*t;#w6y6,w*&$3+&#:3hk$*qdlkphdy,&*$33&O$&*#&&*&*$**,&*3y3*,&**43",
"hlq3#3&$$,:>>>3k,,&#&&&6dw3;360hy*+&+*#**$#&,*#$;.&&ty4*3td&*>:5&&63y666*&#=+*&:,0y#&qhfhthky6&*&33$$&$**&$3**$&&&$,3y,,,**,,3",
"ulq;$3#&&,:>::0t:9>$&&*6dy*3*4tht3$*.4&;**$&2*&$3O#&wp6*3ad&*>>t3&5,t4,6&&&-&,##,ht+,tdlhtdly6&,*4&&#@***#*3*,&&*r*,6t=,,*,&33",
"yl6*+*$#,>,:>:0h0:&#&&*wdw-**3tlt*#*+r#q*&+$*&#&*O&*0y6*5td**>>t*$6,q6>w*$&&+&@>>il+,tylhahly3&$&3$+#&*3$&*3*3#**,$,5y333,*,33",
"dl6*$*+#$,::>>,w,,*$&&*wdt43*30hw&$*+3$3&#$&3$#**O&*ttt,6yd*&>0y3&3666,6**,*#*.&0ilO3tylhthly3,3$3*+#O#3&**3*3$&4*&,3t4*3,*>*5",
"yl4$+&&+*>9#:>6a3,&+&&*wdy4**3yd6*+$$r*33&$#*=.$3+&>qt6*0yd3,$:t3#346633&,&*#&+>3aaO,yylhyaly3&4$,*&$+*;.&*,*3$*****,y663**433",
"yf3#+&#$&,::,:>w&,,&***tfy;*&3tl3$$*+t&4**+#3#&*##&*wyy*0ad&*&,,*$3666,6***4+**:>th#,yykhhhly4,,&*&&#+$*&$*3*3#&3&$*3t663*,,66",
"dd=$O3*#$0::>,30993.*&*tky*3*3yl3**3&y$**##&&&X&*#$*6tw=3td&&#9t*&3366*3*,*&+6$:>ht#3ytldpudy3**&-,&#+#*#**,,6&#6$&,,t3w6,*363",
"ud*&+#&$&,&:>:90&93+*&,tlt63*5td,$&*#y*;3#$*&&.&&#$&0yy36yy*&*,>*&3,64,3*,&*#3&>,90#wqylduhly,*,&3*$#.*;*$***3$+3*$*366t3**343",
"hd,$#**#+:::>:99>93$*&3tkt3**5uu4&=**q&;3&#&**+&$&&&6yt,0yd,&&:64&,663*,&3**#*&>,9t#6wykdhhly,**&&3##++&$+&*33$*6&*,,wtt6**333",
"dy,#+**&&>#::>0>>>,&**3tdt***6ut6&***6,*,+#&3*.$;##*6hw*wyy,#>:,*#,664*,3,*4#&#::99$wwwkhhhlt3*3&&*&$.$*&&&*&3#&4&&**6ty6*,3q3",
"uy3#$&*$$3>#9>09&>>+$*3tlt***0h03&*&,d&*3#&#*&+**&#*6ut30yt*&,>,*&,663**,3*6$6#:>93&4tthhhylt3**&$,&#+$*##****&&*&&&,w6yt,3643",
"hy,$+,*+$#>:,,9::,0#&*4tkt*3&0dw6$&*,0#&*+&+*$@**$$*6dt,0uy3&>,6&$36w3*,,,**#3#:,t,*6wykdhhlt3*&*&,$#+$*&@&*>6$&,*$&*3qtt3334,",
"hy,$$&&##3::9,9::>y@&36qlt=**3h63*&*5y#$3$&&*&+&&$#*6dt30ad4$,0*$&*q6,>3,,&*#*#:,>>$60ylhadkq,,&**&&#O&3$#*&&3$#*#&**6tyq3,336",
"dy3##,*&+&:#,,::::y#*36tlt3&*yh33*#33w,$3#+#**.;&#$*6ht*0yy*+>,,*#3q63&&3>,3#6&:>>6*6qukdhulw3,&$$*$#O#3&+&$,3&@**&$36wwt3,63,",
"ky&#$**&#>#:,,,:::3#&,6wkt*,*pd33&&>>0&$3&#$*,$r&&$*6dt,wyd*#,>&6$,633*,,33*+r&:>,>$66thkuul6,&*&**#$+#&##*$,,*&&&*&,30q66,33,",
"hy*+&*&*####,9>>:>6$$36tka***th,,&&0,3&#3+#$*&#6#*$*6hy*wyd*+,>3*&,y45&**,,4$3#,>:,$66tldadg6,,3*+&$$+$*#$&&*3*#$&&&&30q6636,5",
"hy*+#&*&$$,:0,,>#:y#*36tly**30h****,>w&$*##+&*#4*$$&4dw3tyh&#,>,4#,y64*&,033#39>,>#$q6yldhhfw3,*,+*$&+$&&#*$,3*@#$$@&636w636,3",
"hy*+*&&*#+>>,9>>:#w&&3qtlt**,th*&*,#9t&#3+#+**#r&*#*3h036yf*#>96*&,6363&333*O*>&>,&$w6ylhahl6,***+$&&O&###*&,,*X&&&*$36wqt6633",
"hy*#&***#+:>09>&::5&=3wtht;*6yy**#>,>,,&**##**#;$*O*,lt*tad&O30t*$,q33*$,33,@6:3:,#&twulhhdfw3***@$&&+&&X#**3,&#$*&&**33yw66,0",
"hy3+&q&*&#>:>0,,:#,#;,wthp3;6tt*&,309t+@*&#.$*&q&*+&3lt,waf*+,06*&,q36,&,,4&@0>>:>&&6qylkayf63*&*+$*#.&#&+*&,3*+&*$+&,63yw66,6",
"hy*O&q#**#3>:0,:>&t#346wlp;*0tt*$$&*,>&&*#O#*&&4$&+&,ht,taz*&006&**w66*&*>3*@6&&:3#*46yldhhl63,&&$**&@$*##**3,&$$*#&**36tw6635",
"ht*#*q3#*##:99,,:,3&&36wlt;*0y3&3+>>,t,+&##+*$$4&$+&,ly3thl*&>3,3#*q63,>3363+,&,&>#&36yldadk6,,3**#$*#$&$+*&3**$#*$*$*366tt036",
"dw,##*6*&+&*>t,&::0&*36tkp3;td5&q&&:,5*+*+&#&&#q$*+&,ky,yhk&$3,3-&,6q6,**3q&O>>>&3#*66ygdyyg4443*##$&#&$&+&33,*+&*#$$&330qyw03",
"ht,$*4q&$&+>:,,,:#9:*,6tky;*td3*3&3&93#+&+$#$&$3$*#&,hy3tad&+>,,*+3q333&,3q&+>>&>,+*36tldtdf43*-$#$&*#&$#+*33,&$**O+**,6tty000",
"hy*$,36*4&&*930,>%3&#30tlt44td,*6*3>>>*&&#$X#*$3#&#$,hd3yad&*,:#&#336,3**,6&.:0#,0#*36yffydd3,3*$X#$#####$**6*3$**+&*&,30yd0qw",
"hy,$&,q***&,:i0:,30#&*wtly;3tf,$3*,&:6&.&#$#+$&3*$#&*ku3tty**>3&&#**333*,*33.&>&>w.*33tddydg4*3&$#$$&$+$&+**3,3#&*+#$**,6tywt6",
"dy*#&,6&&*#9>t,:*,9*$36tla3;td*$*,0#:5&$*$&*$&&*&&#&3hu3ytl*&*0**&*3333$4*4*.&t&,4.&33tddtyf333*@&$$&&$&&&**3,4$&*$#&&>36yywyw",
"ht*&&*3&*$&:9t,,>:9*$,wylt46pf*#q,t&,>$+&$&&#$*$&*+&3lh5ttz,*>3*&&,333,*,*43.#0#,5#*34yddtyd3,**O+*$*&&&$$&3333$&*+$#&*33tywt6",
"dt3$&,f*=$*,>0>::,0&#,wyht3;il*#3>p#,t*$*$#+&&&$$&##3kh,yyl&*3&3&&,436*&=&4,#&5#3,#*36yddqyd6,3*##+#&&#&*#**3,*#*&##*#&36rywyy",
"dt*&*&*=*#*&>00>>>9*&*wdkp63al&#=>t#,>&+&+&&#***&&#&,dh3yyl3$>6*&#,4,34&**3*.$0#35+*,6yddtyf63q&$&*$$*$$,**3363$$$##$**,4ydyyy",
"ht,$#,*&=&,>>9e:&90,*,qdht33yl&$4>t#,,&#*$**&&*$$*#&6kh3ayl3*53*&$*3,,******+#0&3q.*33ydytydq*3$+#*#$*$$*$*,343#*$O##**3,tdydd",
"ht*#,,q&&&*3,9,#:90&$*tddt;4al>+*>3#>,*$*#&*#&&$$*#*,lh5ptl*&63t*$33,****&q*+#w%0y+**6yudyrdq*3&#&*#$$$$**&3,6*$&###&**336fydu",
"dy&$3&q$&$*3>>,&>tt**,tfhu46ad&+,:t#>,&+&&$&#**$$*#&5ld3tyl**,,q*&34,***3*q&.#y+,,.*=6yddtydy***+$*$$$#$*#&33w,$&###****36dldd",
"dt*$3&r**$*,>90>:90>$*tldtq0ad*+,&0@#3$#**$*$&**$,$&,kh3ytl4&*,6&*,33,;**&43.#3&,3O*;6dddwydr3,*+&3**&*$*&*6*t3$*+$#&,,&,qdldl",
"dw3#*&y&&$4*&>,>&l0$&*tldp4qhy*$,,,#:>&#&***&**$$3#*3hh3ttl**&0*,**3*3*3**3& :,*33+**6dyuqtdy33*&$**$&&&*#*4*t4&,++$#,&*36fhll",
"dq*$*,3+&$**:>,&,t9&@*tluu;yhy&#3:a#:>#$**$#$*3#$*#>3dh6atl,#*6**&,3,,***$,*&#,>6&+*3qyddrydy3,*#&*$&#***&*3*t6$*##++&*&,6uhkl",
"dw*$*&**,$4,>>t##pe&*&qkuy4tay&#3#0##,#+&***&*3&#,#*3dh6yel3$&&3*$*3,3*&;#**+#0&,*+*3qyddyyyy44+#3*&$#&&$#&,,y,&*##&**$**3ylkl",
"h6,&*&*#*#*3,$0@&9,:#&wdht3tdy&#&&9#&*#&$$&****&&*$*3hh6ayz3*#,3*&*33*,**+3*#&y#0*#&46yddyydq3,#+**&#$&$&$36,t4&*&+$*3**33yhdl",
"u0*&&*3+&#,*::9:&tt&#&qldt4why*#&:,&#&#&&&$+*&;$$&$*,lh6pyz3*&q&3&*3,,*&3$3**#t>w*$*6qyddtydt4,O+*&&*#&*$+*,,w6**+#+&3*&,3rhfl",
"hw*$&*q**$*3,:0&&w9:&&wlu63yhy&#,>t::>$#&$&#&*,$3*#>,kh6itl,$*3**&*3>,*&*+*3*&6,6*$*6ryddtydtq*+#***&.$&&#&3>64**+&$*33*>,yhdl",
"hw,$+&,*&#33:&0#&90:#&0hht*why&#*>,$&,##&*$#**,&&*$**dh6aal3#&,*3*&3,*3**#*$*>3&y&#*6rydfuydyq*..*$**+$&*#&3*63,*##&*;**33yddk",
"kt,$O$*&6+*,&>9#$00>&$0dy0*yh0&$*&0:#*+&*&&;**=&&&$,,hh6ytl,@&4;2&&4,*3$*&3&#>633$#*,ywdduydy3*. 3&&=##$$+&3*633*$$#,6***3yhdl",
"hw*&+&6&&#34&:9#&9i&#$6ha03yd6&#*>y&&*#***&&,**&&*#*,fh0ytz*$&*6&**3>6*&*$**&&w>3*$*4yudddud63*#O*&&&.$&$##3*663*@#*&***,,yhdl",
"ht*#+&3$&$,*&&9&#9,,$&5hht4uk4*&*&,:>&&**&#$,*3*&*#,*dhwtal,$#63*,,3*****#**>:0:>&&*6ryudyudq3*&+*4**.3&&$*3*333&#&&36*,*,wdyl",
"ht3+$$=#>#**&>,>&00:&&5dyy3yg3&#&>,&&$#***##,****&$*,kh6utl,&#,***33&**$*&#**:3,5*#*3dyddyhh63&$#*&$*.&*&+&,3633&&&&*3&3*3qkyl",
"hw*$#&*&,#&*$:0&&903@$6hp0=yl3&&&&,&,&$***$@*#*&$3$&,hh6yyl3&#*q***3&**&*#*&,:3>0*#,,yfdhyhdt6*$#**+; &*&&&*,6,3&*&363&3*,qlhk",
"h6,&O*3&&$**&&>#&t>0+$3du93yl3$&&#,:&&$***++&$**&*#*,dd6ytl3#O6;*,*,&**$&$$&,>33,*#*3ykhuydhw3,$+&6$*+&*&$#330,3$*&*,3*3*,6hdh",
"h6**&&3$&$$,$:,:&9>>&$6hh03tl3*$&&0&*##,**#&&$;***#&,dhqytl,++36*33,,,&*,$#&,:,,3*$*6yldhuydq6*#*$*#3O&**$$*3033$&&&*3*3*,6ydh",
"h6*# &3>,&>*&&>&>9:w++3dy54tl4#*#>,*&**,*3$#,#*$&3$*,dh4dtl4#.*3#3*3,*&$*+$&0:096&#*6ydhhdady6**&&3&*+&*&#$366w*#,&*q3***,qtyh",
"h4,$$&6$>&:>$&>&*9:3&#3dy64yl3&**>3#4*$3*4$&*+**,*$$,dh6yyl3$@y&$33,,*$*&#&*0>0>**$*6yldyahht4&*&&*&*O#*&#*,306*$*&3q3$*,,3tuh",
"h3*#O&6&3,>>#,,>&0:,+#,dy63tg3&**39>>#*4*6&+&+#&**&*,fd6ytk,$+*;$*,3,**&*#$*>:t,*3&*6qgdduadt3**&&3$&+**&#&*3t63#$,3**$3*46wdh",
"h0&O$*6&,&:&$&,>>0:,$$,ddw3tl3&&#>>&3##034$*,+#*&&&*=dd6ytl*#O=q#3,4*,$&&#+$9:t&&;$&6tlkaphhy3**&$*+&#4&&$&,3wt3#*,3;3*3*36tdh",
"h0&$#***,9:&&&0&&,:3##,uy63yl3*$>&>#q$*w34&$*$****&$,dd6ytk3#.**$364,**+&#$+0:p,**$&66lhhuhyy,,**&r$*#&3*$**6t6*#6,&4*$6*366du",
"h6&#+&&,t0,*$*3,,9:y.&3yy5=ty3&*&&##*&&q*q#.*+&$&**&*dd3ytf4&+3q$3,5,**#*++&&,t,&*$*3tlhhyady,*3$$=#&#$**$&,3ty*#*,,4**4&346hu",
"h6$$#**>63$&$,,>&9>0##,uy36yt**&,&0**#$q,6#.4+$&****,dy6dwk,@#*3#*,63*$$&#$+,:0>O*$*36lkauahy,3**$3$*$3*&$&*3wt*&$>&***3*,43dy",
"d6*+O#&>9w:>#3,6&>:9+#,dy53uw3&&>*3*3$&t36$&*@$&**&*,dy3ytf,*+33$,>w3,&+*#&#,&0>$*&*3wlhhuhdy***$$;$*&*;&$*,,tt3+>>*6&*6*,6,dt",
"a0$$$&&9yt$3$&3>&,&,#+3da66yt,**>&,,*#&y,6$#=###***&*dy6d0d4&.*3$*,03,*#&.$&,,>&#,$*66lhuyhdy**3***#&&&*$$*,,ty*$*>>;*&3*,63dy",
"a3&$#$#,t0#>**&,&,>9.$,dh63ut33*>>0*&$*t,6&@3@&&***&,fd3ytf3&.,*$&6t3,*+*&#&3:9&O*$>3wlkhuaky,,**$r#&&*&&&,,3tw*#&:&4&&q&&64dy",
"h0&&#*&,00:>$&,>*0>,##*dh3wdw*3*,&5*3$*t36$+*@*#*****dy4ytf,*+q*$*,w33&.*#$+,&,*+*&*4tlhyyyld3,,$&=$$&#&&**,3yt**>:**&$3&33,dy",
"d3&#+&#,09::&***#0,&@+*ua3tat***&&3,3#*u34.#6+&&***&*dy6ytd,3.*&&&,w3,##*#$*,:9,#*&*3wfdydahd63**$6&#$&&*$3>3yw&&,>,3&3***46wy",
"h3**$*&:t,#:$+&*&>:9++*da,tht3**&&5&*#,y44.$=#3*,3&*3fy3ttd,&$,&$*36,3$+&&++t>:&+3$,30lhhuahz3,**&6*$$*&&&,*5d0*&t>6**&3&,,3wy",
"u3*,$#$39,#>$#&,&,i>.+&uy3tht,**3&:&$&3yq*#&*$*&&,*&*dy3ttf3*$,*$&*q3,$$&*$*,,:&#*&*4wlhhdtlz4**&*q#&&&&$&,*5y6&#,&q3&*4&*44td",
"u3**&*&yy,#,&@+&#,33@O&hp3thy**&6$>3&&3d63+#*$*#*;***dy3ytd4*+3&$&,w33*$&&#&3:,*+*$*6tlldupkz3*2#*r#O*#&*&,,0dw#$6:34**3&*3,6y",
"u3**#*&3y,&:$+#&#90:..*dt,why,#*&$6>$&3d6=O&,+&+***3*fr3ytd36&,*$*,w4,$+#*&&,:$&+*&30tlhdhphl6*2$&6$+$$#**6,5h3&,w>3*&23&*336h",
"h4,&&&#y09#9&&###90,.@&dt3yhw*#*6&&&&&6d**+&,&;#***,*ft3wyd3;#33&&3t3*&$+*&*:&&*#**,6tllhdphlq**$&,&+&&#&*436h3&&>>**&&4&*346d",
"h3;**&&6t,:,&##$$&y&@@&da,tuy*#&3#**+&6h3&O#3&&$&32**dy3ttd4qO&,$*3q3*#++q#&&>$&$,*,6tldhdydl6**+*3&#&**&*333f,$&3>6*&&3**366h",
"h63**$$d,:$&>&&#O$9>+#&dh,yuy*+;*$&$+*wk3*.$q&6#*3,33ft3yyd3=#*4&*0t3*$+#*$&>&$&$**,3tllhdahl6,*$&q$&&&$$*345k,*$,,3*&3*&&33,l",
"u6*#*&$t0:::3#&$&#a:.O&dh,yhy*#&$#&&#&tl6#+#*&6#*3,33fy3rth46#*4$,3t3*&+#2&*&&$$#,344tkluhydlq,&$$6$#**$&*43,l**$&>w*&&*$**35h",
"dw,+*&#d3>:>***#&#0&.#*da,yhw,#&*@+$#&tl3&.+,>*#**336kt6ttk3q&&,$*3t6*$*+4$**>$&&,,,6ylkhdadlq**&*,++*&&&*343l,*$,>6&&&*$&33,l",
"h63&#=$w>@>>,#&O&,9&O.,yh,yut>$=&++$#*yl3&##3&*$&,334lt3qtk,6*&3&*3y5*&##*&*4*&&&*3,6dgkadphly,*+*3@&&&&&*,66z,&&&,3*&3*&&336l",
"d6*+**$r9#::,&*+#,&#..&tu,uut,#*&$#$#,ll6&##&&*#&,336lyw6tk34&*,#*wy0&&&o3#**#$&**330dlhhdphly3&$$*##**$$*,60z**:390**33$$,33l",
"h0*#3&&6&@#:,*##$&0>@$*yh3uuy*$*&*+&#,gf6*&&y>6$$,436ly3wtd33,>&**6t6&*-#*&&3$#$>36,6yhduyydly3*+$q*$$&$**365z,$$,,3&&3*&&,36l",
"dt*+*&#6,%>>>#$##>t&++&yy*hdy&+3**.#&,df6&$,>,*+$,330dit6th34:,,$&wd3&*&@6&$3$$$,6656yldhyahly**+**#&&&$$&,3wz**&,,&**3*$$,36l",
"d63&&#&0>&&#,*##$&5&#+*yy>hdy*#*&*+$&,kk6&#*t,t+&,6,6ly33yh,6,>>**td3**=&q#**$#*3*66wudhduahkr,*O&*##$&#,&,6qz&*#>0***3*&&,36y",
"d6,#3&&*>@&&3&&+*$3$#.*yy*hdy,$*&&$$&3hf6$$&*>6+$36,0da53th33$&,$*6d6&*$#q*;&$#*3366wykdhyhhlt**+$&$#$&&&&,4tz&#&30w4&4*$*336y",
"d63+=&&,:##::*@#$*6*#$&yy*hdy,$**&$$*6kd3*&3*,q+#,630da66el>=>,*&*tz6&*&#y&&,#&&,,366ddhhaahly&*$-*$+$&&#&,6yz*$:,0*3*q&&&&66y",
"hw*$&$$*>%>#,,++&&3*&#$yy*huy>+&*&$$*6ld6&=,&&y$#>666dp03th,*>:>*&yl6*&*&6**,$*&,,460uldayyalq&*+&*&#&&&***qyz&$&39****$$&464d",
"dy*+*#&$>:#%>3$#*#3&&+#yd*hdy*&,**$$3thd6**,&33.$,36qhy63yk&*&3$+&yl6&&&.3#&*&*,343q4dddhppdly**#&*$&#&&**33yz$*#,e&3*3#$**33y",
"hy,+*&$5:#::>0O+&+3*&&&yy,hdy,#**&$*,yhdt*q3,,6@$*300dp63yh*3>,*$*yzw,&$.6**3&**363rwdduppahly*,#*$#$+**=**6yz&&#,9>6**&#$*46t",
"hy*$*&&:>::%,3O#&&&,&&&yd,hdy,$3**&&3lhf6*=*,#*+#*660du03yk**&t&*&ult3**+*&**&&*,3,63dddapaaly*3+$*+&#&&&-,3yz&&#9>*q**#&&*34w",
"yy,$*&##>%%#,3#$**:#$$&td*hhu,#*&*&&3hlkw*,,&*w.$*66wdyt6tk,*>03&&dzy3$$ q&$&&**,3*63ydypthyly*,#&$#&+&****3yz*&$>,*3**#.&,63q",
"hd,$*#*,:%:::0O$*+>&*&$qh*hdu,$3**&&6dhfw*6$#$,O#*6wlhat3tf,*3>***dzy3$*+,*$,**,>w*63yydytyyly**&*$#&#,****6tz*$@>,&4&,+$&*336",
"hd,$&$&*>:@%%t##&#:,&&$wd3ady3#*3&&&6hdg6*6$,>>#**66lhat3yh**,9,6*dld3&$+3*$**4&36*34yddaphtly*3+3*#&#$&***3yk**$:>&4&*+#*3336",
"dd4$*$&>:#&:&9##* >>#$+6d3hdy,*3**&*qdhl4**&&>,#&,6wdhpy3yl&*,3*$*dzy3$*@*&$*&**,3*3,yduytaahy,*+**+&+&*3*&3yf&$#::>d&&#$*,33t",
"hd,***&*>,:#:tO+;#&&&*#3d3hdy*&3**,*thdl6,3#*34#$*60hyyy3yl&*&,>**dly3&*#=*&**3&*3***yyuptpadd,*$*4#&+,6&4*3yd$&&:,>y&*++**,4t",
"ud3&$$#*::&##9#$*+&,#&$3u3hdy3*2*&*&tdklw,*$#*,#+*0tlhht6yl**,,,*&dld3&&+3&#,**&,33*>6ddatyyhd,*#*;#*O>***&3yd*3:&>&q*3+$***3w",
"pl3$$&#&>:&:&3##*+$**3$,u6yut*&33*,3dhftt*=#,&,*#*6yhhyw4yl>*&936&dzd4$*+*3$**4***,,*6uduypyly43&**$&+*&*3*3ut&*::,&6*,#**&*,w",
"hl4#*&$#,9#:#:#**+&*&$&3dqhdt3,q*$,,lulyw*3$&&6*#*6dlhdy4yl*&,>,,&dld6#*+*,$,==*&,**&3ydyeytly3*&3*+$#3r&3&*yw$&>,&,**3#*&,3,0",
"yg3$*+**>,>::,$**.&&#$&3h6adt,,6*&,3lhdy6,*+&&6&#,6glkht4yf*&#>,*$ddlw#*.#=#*6***3*&*6dyytytky4*&**+&O3,**$3yw**>:##q*&#***,36",
"hl3&&&*#>:>::,*&3.&#$&$3h6uut,,4***6hlkdw**$&*0*#*3klhpt4yl&#&93,$dll6+*$&6&46*$&,*&&3dhp0yyhy5*$4*+#.>*33$*y6&,,:,$3*3+$&*,,w",
"yf6$*#$&>>>&0:,#,.&&$&*3d6thq333*&3tdhlyw**+,>6*+&4klhyy3yl*+9>,6&dhl0#&#*3$,3*&*,*&*3dhttyahy3,&*3##$>3&*#3t6*69::+*&&&*3*>,t",
"ug0&&#&+,0>:#,&+3O&&&$$3h6yuz,36,*6thdlyt*$##&3&#&,ldhyy3yz$$::0*$dkz6#*.$*$,t**&*&&&3dhaeauly,=**3#&+&*-*$*t6*,&:9&4**$***&,6",
"yl6*&#&@>::>:>,+6.*>*##6uwuyl636**qddhlq63&#,*t*O&,hhlty3tz$&>,93*hkly&*#&3#$*3*&*,$,,dha0tydt6,&&*$##&**3#3t3&&0&&$4**$**$*,w",
"uk6**$*@99,>>:3&4 ***&#3d6uul343*&6lyhlww,&#*,6*O**dhhay6tz&+3&w*$gdz6&*#&=>*q*&*3*&*3dht0ttdw3*3**#&@,3**&6w3$*3&,$3*&$*,**,6",
"adw*$$&O,>0>,>9+>.*+&$$5d0uul64q*,tdulhw0,&$,#64.&*hhkuy4yz&#,,0*#kdlq&*.#3*&r;**,,**3daytttlt3,&*6#*+*&&*&4w6=,t:>+3**&&***,6",
"yd3*$$#+00,,,:9#& &&*$&3h3yulyq3,,yduldt63*&&#3*.&&hdhhy6yl&&0993+ldlw&*O#,&&,*$&&*&*,dhy0tufq6***&&*$&&**&*w6*36,>$**3,**$**0",
"ak6,*&&O0e>>::9#3.&#$$&3d5yylqy3,6dhhgyq63$*3&,,#&&wlhay4tf$@*903#kuk6&&#O4&$6**&*3**,fhy0yddw3*&$3$*#3&&&$,w4*we::$4*&#,&*&*6",
"pd6**&$O0:,>,:w$3.*#&##6h3yulyt535dhhdy666&$3>33+&*whhat3tl&#0>&*#dul6**+.**$d6&&**3&3dha0yhk66****#&&$&$&$463*3,>:#**&#**,&&6",
"yh0*&$$+99>9,&9>3O*&*+#3d3yyluy36tdhkyt666#**$6*+#>thhaw4ul#&,3>4#dhd6*&.O3&&3**#**&&,fdteyyl53,*$*$&+*&&&#*04*3w&:&3**&**&**3",
"hl6*$&*+>,:0,:9$w.*@&$&3d6tyhdd66qdukd6664&&&&*,&&>thhyt3yl#*>t9&#ddk63*+#*,&33+$3*&$3ddatyhkw433**$&#*,#3$*q6*35>&#3*&&**&&*w",
"ah6&&&&#t,&9,>t*6O*$$+&3h6tahdd6tydhdyq663&&#&,3$*&yhhtt4yl#*>,:*#ydd64&++*,$q3&&$;&&3fdatyhl363,**$&+*&$*&*r3&,y#&$***+**,*,w",
"hkw*$**&0,93:,0,&.*#&#+3ht6hdldttydhdt6364&&&*&*$&&thh0t3yl$*&t>*$ddf03*#$*,&,6##*&$&3ddhtyhl633,**#,#*$*6#*q4&30>#$***&&**,,6",
"hh0&&#6#0:,t,>:,y#*$*#$,h66hhlkqydulyt3663**&&*,*&$tuatt*yl$*&6>*+dkhy3*##*,&3,&#***#3ddptydl633*-*$&#*+*;+*64*3&&#$*,*&&3**&q",
"uh6*$$4&0t%9>9t53&*@3$@,hw3ddlkydhylqq3464&**&*4*&$thaty;yd#,:t>*#dkky4&&$**&33&&**#&6ddytyytw,3**;#*O*#$*+*63&y,&&$*34$&**,*3",
"hh6&$+*:0,>,>:06*#&#,#$3h66yllltfhdyw63346#-&*&*&*&6hhty3yk#3&3,,#dhdd4&&$&3&**$$*&##3ddhthyy0,33**$##&$*3$*6,*y>$#$*3*&*&,,*4",
"ah0*&+4*&,>y>>p3,>*&,#&3h5wahkldluyw66,336#*#*&&*&$6hayy3yl$439>*#dkdl6*##;***6#&**$$3ddhyddy633*23+&+&&$*#*33**&$@$*4*$&***&4",
"hh6*#$q&0>&h>:t,3+*&6#$,h36hkllfhpd0,6,3,3$*$$&&*&$,hatt=yl$*:>,&$dhdl3*+&*,**&#***##,ddhadhy6343**#$#&+$3&*64$w&>+#*4,$$3***6",
"uh0,$+3*9,:t3:t>9&&&3$$,d6,hhhkdfhd6,,,,36$*##,&=$#,hya6*tk$&>3>3#dldl3,*&&&>&&#***##3ddhydhyw,,**$$*+#$$*#&33#4&>$#&3*&$q$*&3",
"ad6*#$*&9,,p0,9#,$*#*&$,h03yhkldfud432*3,3&*&&&&*+$3htpw;yl#,,y3,#dkdl6*&#$,*#*#$33##,fdhaudt6,,3-*$&$+#*4#*5,*3,>@$*64&$*$**6",
"uh63$+4*>,,a:>0>&&*&*##3k63ahhhddyf34**,,3#**$,**##3dhwt3td#3&ut3#dlkl4*&#&*&,*#*,3#$4dfuyudy6,333&O&$&#*4&&33&,&,O@*6*&#4&**3",
"yhw*##*&,>9t9,,,&*&$6$&3h6,hhhhudhd,3,&,*3#3+*&*;&#3hyww3tl&3:03>&dlll63$&$*#&*#334#$3fdhaudy0,33*$#*&&+&*$&33*4&,#$*3*&$*&&*4",
"ud6*$+*$09:t,,5,&***6$&,h03uhhkddhd,32$*,,#3*,,**&$3dhtt;wf&,>00,&ufll63$#$&&$*#3,,##3hdhaddt6*33*&#&&&#*;#*34&w#*$+*4&*$**&*4",
"adw*#O4&&,:t,,,9:*&$6#*3lw,ydhhuduu,,*&**3#3$3>**$&3hht63yl&3>50,&ylll63$&&&***$30,&#3ddatydy6,43*##$+#$*q#&,6*6&>+$*q&*$&,*,6",
"hhw*#$&$*>5t9,,>&3&&*$&3h03uhhhyydy,,*$**,$4&&q&&#$3katq4tz&,,,0&&ylll6,#&&,$,3$*,3+#3dhhhddy633,*$+&&##*3+&,4&6#>.$3q&*&**&,3",
"hh3&#$**3,:9>:35,&*&*#*3hw4tahhtuky*&&$***#3&q6$*#&3khtq3yl$3>3,*#tlllq,$&**$*3#>04*&6klaauuu6334,&#&*#$*3#*,**3&6.#3q$&&&*&*3",
"yh6*+*&*>,,009,0>3&*6$&6ht3tuhayyk6**&#3*3#**q3$*#&6hyt63tz#*:>t&&tlll33$*&*##3#*t3##3lhhtddy63,3*###*@#$3$*,3=,#> &6w&3&***33",
"dd0,+$*&&:>l9,>d,3$;&$&6d0*yuhhyyl33&&$*,*&3**3&&&&3da04*6z#&:0>$&qkll6,&&=&#&,$,03*$3hkhaddy4*,,*+&&&O+;3$&3,*,#&+$6w&,***$*6",
"ak63##&&&99k99t,5##**$&3ht;wyuutdy3*&$$*&*&3$,633#*3daq3,tz&*>,9#*wtll63*&&*&&*#333#&3lkyaydy6&**2&$$3&+*3$&3**&#3#&ty*****#,4"
};
